<?xml version="1.0" encoding="UTF-8" standalone="no"?>
<!-- Created with Inkscape (http://www.inkscape.org/) -->

<svg
   xmlns:dc="http://purl.org/dc/elements/1.1/"
   xmlns:cc="http://creativecommons.org/ns#"
   xmlns:rdf="http://www.w3.org/1999/02/22-rdf-syntax-ns#"
   xmlns:svg="http://www.w3.org/2000/svg"
   xmlns="http://www.w3.org/2000/svg"
   xmlns:sodipodi="http://sodipodi.sourceforge.net/DTD/sodipodi-0.dtd"
   xmlns:inkscape="http://www.inkscape.org/namespaces/inkscape"
   version="1.1"
   width="141.73228"
   height="141.73228"
   id="svg2"
   xml:space="preserve"
   inkscape:version="0.48.5 r10040"
   sodipodi:docname="arteria-logo-blue.svg"
   inkscape:export-filename="/Users/kay/Projects/public/arterianet/branding/logo-design/arteria-logo-blue.png"
   inkscape:export-xdpi="650.23999"
   inkscape:export-ydpi="650.23999"><sodipodi:namedview
     pagecolor="#ffffff"
     bordercolor="#666666"
     borderopacity="1"
     objecttolerance="10"
     gridtolerance="10"
     guidetolerance="10"
     inkscape:pageopacity="0"
     inkscape:pageshadow="2"
     inkscape:window-width="1440"
     inkscape:window-height="807"
     id="namedview3035"
     showgrid="false"
     inkscape:zoom="1.6651111"
     inkscape:cx="-35.433071"
     inkscape:cy="70.866142"
     inkscape:window-x="0"
     inkscape:window-y="1"
     inkscape:window-maximized="1"
     inkscape:current-layer="svg2" /><metadata
     id="metadata8"><rdf:RDF><cc:Work
         rdf:about=""><dc:format>image/svg+xml</dc:format><dc:type
           rdf:resource="http://purl.org/dc/dcmitype/StillImage" /><dc:title></dc:title></cc:Work></rdf:RDF></metadata><defs
     id="defs6"><clipPath
       id="clipPath16"><path
         d="M 0,600 900,600 900,0 0,0 0,600 z"
         id="path18" /></clipPath></defs><path
     d="M 70.71164,0.00282139 C 70.073682,0.02285339 69.488708,0.1383886 69.012095,0.2916798 L 3.0903249,24.940961 c -1.8285875,0.691565 -3.11056822,2.489115 -3.09008288434,4.33288 l 0,83.191309 C 2.5834899e-4,114.29306 1.2777564,116.06449 3.0903249,116.7499 l 65.9217701,24.64927 c 1.17456,0.44415 2.533538,0.44415 3.708098,0 L 138.64196,116.7499 c 1.81257,-0.68541 3.09007,-2.45684 3.09008,-4.28475 l 0,-83.191309 c 0.0204,-1.843765 -1.26149,-3.641315 -3.09008,-4.33288 L 72.720193,0.2916798 C 72.040523,0.06105499 71.349599,-0.01643541 70.71164,0.00282139 z M 70.86614,9.5833034 123.39756,29.225698 103.82703,36.591596 51.244118,16.901057 70.866145,9.5833034 z M 37.905259,21.907943 90.436666,41.550336 70.866145,48.916235 18.334734,29.225698 37.905259,21.907943 z M 9.8885066,36.110165 65.922011,57.052423 l 0,73.225697 -56.0335044,-20.99041 0,-73.177545 z m 121.9552734,0 0,73.177545 -23.07262,8.61762 0,-17.76481 c 0.0549,-2.467854 -2.35515,-4.744062 -4.99563,-4.71803 -2.60612,0.02464 -4.946808,2.282216 -4.892632,4.71803 l 0,21.47184 -23.072621,8.66576 0,-73.225697 56.033503,-20.942258 z M 103.41502,54.69341 a 4.8210115,4.5066469 0 0 0 -4.73813,4.573597 l 0,14.539224 a 4.8210115,4.5066469 0 1 0 9.63076,0 l 0,-14.539224 a 4.8210115,4.5066469 0 0 0 -4.89263,-4.573597 z"
     id="logo"
     style="text-indent:0;text-transform:none;direction:ltr;block-progression:tb;baseline-shift:baseline;color:#000000;fill:#328ae3;fill-opacity:1;stroke:none;marker:none;visibility:visible;display:inline;overflow:visible;enable-background:accumulate" /></svg>