<?xml version="1.0" encoding="UTF-8" standalone="no"?>
<!-- Created with Inkscape (http://www.inkscape.org/) -->

<svg
   xmlns:dc="http://purl.org/dc/elements/1.1/"
   xmlns:cc="http://creativecommons.org/ns#"
   xmlns:rdf="http://www.w3.org/1999/02/22-rdf-syntax-ns#"
   xmlns:svg="http://www.w3.org/2000/svg"
   xmlns="http://www.w3.org/2000/svg"
   xmlns:sodipodi="http://sodipodi.sourceforge.net/DTD/sodipodi-0.dtd"
   xmlns:inkscape="http://www.inkscape.org/namespaces/inkscape"
   version="1.1"
   width="559.86163"
   height="141.73228"
   id="svg2"
   xml:space="preserve"
   inkscape:version="0.48.5 r10040"
   sodipodi:docname="arteria-blue-logo-white-text.svg"
   inkscape:export-filename="/Users/kay/Projects/public/arterianet/branding/logo-design/arteria-blue-logo-white-text.png"
   inkscape:export-xdpi="650.23999"
   inkscape:export-ydpi="650.23999"><sodipodi:namedview
     pagecolor="#ffffff"
     bordercolor="#666666"
     borderopacity="1"
     objecttolerance="10"
     gridtolerance="10"
     guidetolerance="10"
     inkscape:pageopacity="0"
     inkscape:pageshadow="2"
     inkscape:window-width="640"
     inkscape:window-height="480"
     id="namedview3029"
     showgrid="false"
     inkscape:zoom="0.58585904"
     inkscape:cx="279.93082"
     inkscape:cy="70.866142"
     inkscape:window-x="0"
     inkscape:window-y="0"
     inkscape:window-maximized="0"
     inkscape:current-layer="svg2" /><metadata
     id="metadata8"><rdf:RDF><cc:Work
         rdf:about=""><dc:format>image/svg+xml</dc:format><dc:type
           rdf:resource="http://purl.org/dc/dcmitype/StillImage" /><dc:title></dc:title></cc:Work></rdf:RDF></metadata><defs
     id="defs6"><clipPath
       id="clipPath16"><path
         d="M 0,600 900,600 900,0 0,0 0,600 z"
         id="path18" /></clipPath></defs><path
     d="m 396.77678,76.36883 -43.24375,0 -4.03625,0 c 0.125,-1.74 0.4475,-3.4475 0.9525,-5.0975 3.05625,-9.99875 12.77,-17.8525 25.25751,-17.8525 21.57499,0 30.30624,22.95 21.06999,22.95 m -21.19625,-30.85 c -20.18999,0 -35.48874,15.925 -35.48874,35.74125 0,16.80375 12.16374,35.48625 35.615,35.48625 6.89625,0 13.5425,-1.87875 19.18624,-5.5175 3.6075,-2.275 8.3525,-5.555 10.72875,-10.9225 0.004,-0.009 0.009,-0.015 0.0113,-0.0225 0.004,-0.006 0.006,-0.0112 0.009,-0.0162 l -0.005,-0.002 c 0.21375,-0.51375 0.33626,-1.075 0.33626,-1.665 0,-2.40125 -1.945,-4.34625 -4.34501,-4.34625 -1.65499,0 -3.04375,0.95875 -3.77875,2.31875 l -0.0537,-0.025 c -3.28251,7.37875 -13.08626,12.1725 -22.08875,12.1725 -11.41251,0.12625 -25.83376,-8.02625 -26.33501,-24.95125 l 48.72375,-0.0375 c 18.24875,0 11.98375,-18.8875 2.18875,-28.6825 -6.27125,-6.27125 -15.17375,-9.53 -24.70375,-9.53"
     id="path22"
     style="fill:#ffffff;fill-opacity:1;fill-rule:nonzero;stroke:none" /><path
     d="m 335.22816,45.518455 -10.8225,0 0,-15.895 c 0,-2.56125 -2.07625,-4.6375 -4.6375,-4.6375 -2.56125,0 -4.6375,2.07625 -4.6375,4.6375 l -0.005,0 0.001,15.895 -18.915,0 c -7.65,0.24375 -16.165,2.52 -21.06625,11.065 l 0,-4.545 c 0,-2.56125 -2.07625,-4.6375 -4.6375,-4.6375 -2.56125,0 -4.6375,2.07625 -4.6375,4.6375 l -0.005,0 0,58.191245 0.005,0 c 0,2.56125 2.07625,4.6375 4.6375,4.6375 2.56125,0 4.6375,-2.07625 4.6375,-4.6375 l 0,-35.344995 c 0.9725,-13.46 8.095,-22.13 20.18875,-22.13 l 0.8775,0 0,-0.0038 18.915,0.0012 0.004,57.477495 c 0,2.56125 2.07625,4.6375 4.6375,4.6375 2.56125,0 4.6375,-2.07625 4.6375,-4.6375 l 0,-57.476245 10.8225,0.0012 0,-0.0038 c 1.9975,0 3.61625,-1.62 3.61625,-3.61625 0,-1.9975 -1.61875,-3.61625 -3.61625,-3.61625"
     id="path26"
     style="fill:#ffffff;fill-opacity:1;fill-rule:nonzero;stroke:none" /><path
     d="m 454.32403,45.518455 c -7.65,0.24375 -16.165,2.52 -21.06625,11.065 l 0,-4.545 c 0,-2.56125 -2.07625,-4.6375 -4.6375,-4.6375 -2.56125,0 -4.6375,2.07625 -4.6375,4.6375 l -0.005,0 0,58.191245 0.005,0 c 0,2.56125 2.07625,4.6375 4.6375,4.6375 2.56125,0 4.6375,-2.07625 4.6375,-4.6375 l 0,-35.344995 c 0.9725,-13.46 8.095,-22.13 20.1875,-22.13 l 0.87875,0 0,-0.0038 c 1.9975,0 3.61625,-1.62 3.61625,-3.61625 0,-1.9975 -1.61875,-3.61625 -3.61625,-3.61625"
     id="path30"
     style="fill:#ffffff;fill-opacity:1;fill-rule:nonzero;stroke:none" /><path
     d="m 468.99266,47.400705 c -2.56125,0 -4.6375,2.07625 -4.6375,4.6375 l -0.005,0 0,58.191245 0.005,0 c 0,2.56125 2.07625,4.6375 4.6375,4.6375 2.56125,0 4.6375,-2.07625 4.6375,-4.6375 l 0,-58.191245 c 0,-2.56125 -2.07625,-4.6375 -4.6375,-4.6375"
     id="path34"
     style="fill:#ffffff;fill-opacity:1;fill-rule:nonzero;stroke:none" /><path
     d="m 236.53203,91.668205 c -3.63625,9.530005 -12.415,16.426255 -24.3275,16.426255 -18.56,0 -26.96125,-14.673755 -27.0875,-26.835005 l 0,-0.125 c 0,-15.0475 11.28625,-27.08625 26.83625,-27.08625 11.9125,0 20.9425,6.895 24.705,16.17375 1.50375,3.26125 2.25625,7.025 2.13,10.78625 0,3.635 -0.75125,7.39875 -2.25625,10.66 m 7.4325,-44.8275 c -2.56124,0 -4.63749,2.07625 -4.63749,4.6375 l -0.005,0 0,7.36 c -5.24375,-6.54 -15.87749,-13.32 -28.37125,-13.32 -20.56624,0 -34.9875,15.8 -34.9875,35.61625 0,18.56 13.04125,35.611245 34.9875,35.611245 11.1425,0 22.54875,-5.68625 28.37125,-14.58125 l 0,7.505 0.005,0 c 0,2.56125 2.07625,4.6375 4.63749,4.6375 2.56125,0 4.6375,-2.07625 4.6375,-4.6375 l 0,-58.191245 c 0,-2.56125 -2.07625,-4.6375 -4.6375,-4.6375"
     id="path38"
     style="fill:#ffffff;fill-opacity:1;fill-rule:nonzero;stroke:none" /><path
     d="m 547.79166,91.668205 c -3.63625,9.530005 -12.415,16.426255 -24.3275,16.426255 -18.56,0 -26.96125,-14.673755 -27.0875,-26.835005 l 0,-0.125 c 0,-15.0475 11.28625,-27.08625 26.83625,-27.08625 11.9125,0 20.9425,6.895 24.705,16.17375 1.50375,3.26125 2.25625,7.025 2.13,10.78625 0,3.635 -0.7525,7.39875 -2.25625,10.66 m 7.4325,-44.8275 c -2.56125,0 -4.6375,2.07625 -4.6375,4.6375 l -0.005,0 0,7.36 c -5.24375,-6.54 -15.8775,-13.32 -28.37125,-13.32 -20.56625,0 -34.9875,15.8 -34.9875,35.61625 0,18.56 13.04125,35.611245 34.9875,35.611245 11.1425,0 22.54875,-5.68625 28.37125,-14.58125 l 0,7.505 0.005,0 c 0,2.56125 2.07625,4.6375 4.6375,4.6375 2.56125,0 4.6375,-2.07625 4.6375,-4.6375 l 0,-58.191245 c 0,-2.56125 -2.07625,-4.6375 -4.6375,-4.6375"
     id="path42"
     style="fill:#ffffff;fill-opacity:1;fill-rule:nonzero;stroke:none" /><path
     d="m 473.98941,29.984955 c 0,2.76125 -2.23875,4.99875 -4.99875,4.99875 -2.76125,0 -5,-2.2375 -5,-4.99875 0,-2.76125 2.23875,-4.99875 5,-4.99875 2.76,0 4.99875,2.2375 4.99875,4.99875"
     id="path46"
     style="fill:#ffffff;fill-opacity:1;fill-rule:nonzero;stroke:none" /><g
     transform="matrix(0.80000002,0,0,0.80000002,-2.5e-6,5e-6)"
     id="g3148"
     style="fill:#328aef;fill-opacity:0.94117647"><path
       d="m 88.389548,0.00352674 c -0.797448,0.02504 -1.528665,0.169459 -2.124431,0.361073 L 3.862906,31.1762 c -2.2857343,0.864457 -3.88821015,3.111394 -3.86260348043,5.4161 l 0,103.98914 C 3.2293623e-4,142.86632 1.5971954,145.08061 3.862906,145.93737 l 82.402211,30.81159 c 1.4682,0.55519 3.166922,0.55519 4.635122,0 l 82.402211,-30.81159 c 2.26571,-0.85676 3.86258,-3.07105 3.8626,-5.35593 l 0,-103.98914 c 0.0255,-2.304706 -1.57687,-4.551643 -3.8626,-5.4161 L 90.900239,0.36459974 c -0.849587,-0.288281 -1.713243,-0.385144 -2.510691,-0.361073 z M 88.582673,11.979129 154.24694,36.532121 129.78378,45.739494 64.055146,21.126321 88.582679,11.979129 z M 47.381573,27.384928 113.04583,51.937919 88.582679,61.145292 22.918417,36.532121 47.381573,27.384928 z m -35.02094,17.752777 70.041879,26.177822 0,91.532113 -70.041879,-26.238 0,-91.471935 z m 152.444087,0 0,91.471935 -28.84077,10.77202 0,-22.20601 c 0.0686,-3.08482 -2.94394,-5.93008 -6.24454,-5.89754 -3.25765,0.0308 -6.18351,2.85277 -6.11579,5.89754 l 0,26.83979 -28.840776,10.8322 0,-91.532113 70.041876,-26.177822 z m -35.53595,23.229056 a 6.0262642,5.6333085 0 0 0 -5.92266,5.716996 l 0,18.174029 a 6.0262642,5.6333085 0 1 0 12.03845,0 l 0,-18.174029 a 6.0262642,5.6333085 0 0 0 -6.11579,-5.716996 z"
       id="logo"
       style="text-indent:0;text-transform:none;direction:ltr;block-progression:tb;baseline-shift:baseline;color:#000000;fill:#328aef;fill-opacity:0.94117647;stroke:none;marker:none;visibility:visible;display:inline;overflow:visible;enable-background:accumulate" /></g></svg>