<?xml version="1.0" encoding="UTF-8" standalone="no"?>
<!-- Created with Inkscape (http://www.inkscape.org/) -->

<svg
   xmlns:dc="http://purl.org/dc/elements/1.1/"
   xmlns:cc="http://creativecommons.org/ns#"
   xmlns:rdf="http://www.w3.org/1999/02/22-rdf-syntax-ns#"
   xmlns:svg="http://www.w3.org/2000/svg"
   xmlns="http://www.w3.org/2000/svg"
   xmlns:sodipodi="http://sodipodi.sourceforge.net/DTD/sodipodi-0.dtd"
   xmlns:inkscape="http://www.inkscape.org/namespaces/inkscape"
   version="1.1"
   width="141.73228"
   height="141.73228"
   id="svg2"
   xml:space="preserve"
   inkscape:version="0.48.5 r10040"
   sodipodi:docname="arteria-logo-blue.svg"
   inkscape:export-filename="/Users/kay/Projects/public/arterianet/branding/logo-design/arteria-logo-blue.png"
   inkscape:export-xdpi="650.23999"
   inkscape:export-ydpi="650.23999"><sodipodi:namedview
     pagecolor="#ffffff"
     bordercolor="#666666"
     borderopacity="1"
     objecttolerance="10"
     gridtolerance="10"
     guidetolerance="10"
     inkscape:pageopacity="0"
     inkscape:pageshadow="2"
     inkscape:window-width="640"
     inkscape:window-height="480"
     id="namedview3038"
     showgrid="false"
     inkscape:zoom="1.6651111"
     inkscape:cx="70.866142"
     inkscape:cy="70.866142"
     inkscape:window-x="362"
     inkscape:window-y="122"
     inkscape:window-maximized="0"
     inkscape:current-layer="svg2" /><metadata
     id="metadata8"><rdf:RDF><cc:Work
         rdf:about=""><dc:format>image/svg+xml</dc:format><dc:type
           rdf:resource="http://purl.org/dc/dcmitype/StillImage" /><dc:title></dc:title></cc:Work></rdf:RDF></metadata><defs
     id="defs6"><clipPath
       id="clipPath16"><path
         d="M 0,600 900,600 900,0 0,0 0,600 z"
         id="path18" /></clipPath></defs><g
     transform="scale(0.80000002,0.80000002)"
     id="g3148"
     style="fill:#328aef;fill-opacity:0.94117647"><path
       d="m 88.389548,0.00352674 c -0.797448,0.02504 -1.528665,0.169459 -2.124431,0.361073 L 3.862906,31.1762 c -2.2857343,0.864457 -3.88821015,3.111394 -3.86260348043,5.4161 l 0,103.98914 C 3.2293623e-4,142.86632 1.5971954,145.08061 3.862906,145.93737 l 82.402211,30.81159 c 1.4682,0.55519 3.166922,0.55519 4.635122,0 l 82.402211,-30.81159 c 2.26571,-0.85676 3.86258,-3.07105 3.8626,-5.35593 l 0,-103.98914 c 0.0255,-2.304706 -1.57687,-4.551643 -3.8626,-5.4161 L 90.900239,0.36459974 c -0.849587,-0.288281 -1.713243,-0.385144 -2.510691,-0.361073 z M 88.582673,11.979129 154.24694,36.532121 129.78378,45.739494 64.055146,21.126321 88.582679,11.979129 z M 47.381573,27.384928 113.04583,51.937919 88.582679,61.145292 22.918417,36.532121 47.381573,27.384928 z m -35.02094,17.752777 70.041879,26.177822 0,91.532113 -70.041879,-26.238 0,-91.471935 z m 152.444087,0 0,91.471935 -28.84077,10.77202 0,-22.20601 c 0.0686,-3.08482 -2.94394,-5.93008 -6.24454,-5.89754 -3.25765,0.0308 -6.18351,2.85277 -6.11579,5.89754 l 0,26.83979 -28.840776,10.8322 0,-91.532113 70.041876,-26.177822 z m -35.53595,23.229056 a 6.0262642,5.6333085 0 0 0 -5.92266,5.716996 l 0,18.174029 a 6.0262642,5.6333085 0 1 0 12.03845,0 l 0,-18.174029 a 6.0262642,5.6333085 0 0 0 -6.11579,-5.716996 z"
       id="logo"
       style="text-indent:0;text-transform:none;direction:ltr;block-progression:tb;baseline-shift:baseline;color:#000000;fill:#328aef;fill-opacity:0.94117647;stroke:none;marker:none;visibility:visible;display:inline;overflow:visible;enable-background:accumulate" /></g></svg>