<?xml version="1.0" encoding="UTF-8" standalone="no"?>
<!-- Created with Inkscape (http://www.inkscape.org/) -->

<svg
   xmlns:dc="http://purl.org/dc/elements/1.1/"
   xmlns:cc="http://creativecommons.org/ns#"
   xmlns:rdf="http://www.w3.org/1999/02/22-rdf-syntax-ns#"
   xmlns:svg="http://www.w3.org/2000/svg"
   xmlns="http://www.w3.org/2000/svg"
   version="1.1"
   width="559.86163"
   height="141.73228"
   id="svg2"
   xml:space="preserve"><metadata
     id="metadata8"><rdf:RDF><cc:Work
         rdf:about=""><dc:format>image/svg+xml</dc:format><dc:type
           rdf:resource="http://purl.org/dc/dcmitype/StillImage" /><dc:title></dc:title></cc:Work></rdf:RDF></metadata><defs
     id="defs6"><clipPath
       id="clipPath16"><path
         d="M 0,600 900,600 900,0 0,0 0,600 z"
         id="path18" /></clipPath></defs><g
     transform="matrix(1.25,0,0,-1.25,-194.22584,446.38658)"
     id="g10"><path
       d="m 472.8021,296.0142 -34.595,0 -3.229,0 c 0.1,1.392 0.358,2.758 0.762,4.078 2.445,7.999 10.216,14.282 20.206,14.282 17.26,0 24.245,-18.36 16.856,-18.36 m -16.957,24.68 c -16.152,0 -28.391,-12.74 -28.391,-28.593 0,-13.443 9.731,-28.389 28.492,-28.389 5.517,0 10.834,1.503 15.349,4.414 2.886,1.82 6.682,4.444 8.583,8.738 0.003,0.007 0.007,0.012 0.009,0.018 0.003,0.005 0.005,0.009 0.007,0.013 l -0.004,0.002 c 0.171,0.411 0.269,0.86 0.269,1.332 0,1.921 -1.556,3.477 -3.476,3.477 -1.324,0 -2.435,-0.767 -3.023,-1.855 l -0.043,0.02 c -2.626,-5.903 -10.469,-9.738 -17.671,-9.738 -9.13,-0.101 -20.667,6.421 -21.068,19.961 l 38.979,0.03 c 14.599,0 9.587,15.11 1.751,22.946 -5.017,5.017 -12.139,7.624 -19.763,7.624"
       id="path22"
       style="fill:#000000;fill-opacity:1;fill-rule:nonzero;stroke:none" /><path
       d="m 423.5632,320.6945 -8.658,0 0,12.716 c 0,2.049 -1.661,3.71 -3.71,3.71 -2.049,0 -3.71,-1.661 -3.71,-3.71 l -0.004,0 10e-4,-12.716 -15.132,0 c -6.12,-0.195 -12.932,-2.016 -16.853,-8.852 l 0,3.636 c 0,2.049 -1.661,3.71 -3.71,3.71 -2.049,0 -3.71,-1.661 -3.71,-3.71 l -0.004,0 0,-46.553 0.004,0 c 0,-2.049 1.661,-3.71 3.71,-3.71 2.049,0 3.71,1.661 3.71,3.71 l 0,28.276 c 0.778,10.768 6.476,17.704 16.151,17.704 l 0.702,0 0,0.003 15.132,-10e-4 0.003,-45.982 c 0,-2.049 1.661,-3.71 3.71,-3.71 2.049,0 3.71,1.661 3.71,3.71 l 0,45.981 8.658,-10e-4 0,0.003 c 1.598,0 2.893,1.296 2.893,2.893 0,1.598 -1.295,2.893 -2.893,2.893"
       id="path26"
       style="fill:#000000;fill-opacity:1;fill-rule:nonzero;stroke:none" /><path
       d="m 518.8399,320.6945 c -6.12,-0.195 -12.932,-2.016 -16.853,-8.852 l 0,3.636 c 0,2.049 -1.661,3.71 -3.71,3.71 -2.049,0 -3.71,-1.661 -3.71,-3.71 l -0.004,0 0,-46.553 0.004,0 c 0,-2.049 1.661,-3.71 3.71,-3.71 2.049,0 3.71,1.661 3.71,3.71 l 0,28.276 c 0.778,10.768 6.476,17.704 16.15,17.704 l 0.703,0 0,0.003 c 1.598,0 2.893,1.296 2.893,2.893 0,1.598 -1.295,2.893 -2.893,2.893"
       id="path30"
       style="fill:#000000;fill-opacity:1;fill-rule:nonzero;stroke:none" /><path
       d="m 530.5748,319.1887 c -2.049,0 -3.71,-1.661 -3.71,-3.71 l -0.004,0 0,-46.553 0.004,0 c 0,-2.049 1.661,-3.71 3.71,-3.71 2.049,0 3.71,1.661 3.71,3.71 l 0,46.553 c 0,2.049 -1.661,3.71 -3.71,3.71"
       id="path34"
       style="fill:#000000;fill-opacity:1;fill-rule:nonzero;stroke:none" /><path
       d="m 344.6063,283.7747 c -2.909,-7.624 -9.932,-13.141 -19.462,-13.141 -14.848,0 -21.569,11.739 -21.67,21.468 l 0,0.1 c 0,12.038 9.029,21.669 21.469,21.669 9.53,0 16.754,-5.516 19.764,-12.939 1.203,-2.609 1.805,-5.62 1.704,-8.629 0,-2.908 -0.601,-5.919 -1.805,-8.528 m 5.946,35.862 c -2.049,0 -3.71,-1.661 -3.71,-3.71 l -0.004,0 0,-5.888 c -4.195,5.232 -12.702,10.656 -22.697,10.656 -16.453,0 -27.99,-12.64 -27.99,-28.493 0,-14.848 10.433,-28.489 27.99,-28.489 8.914,0 18.039,4.549 22.697,11.665 l 0,-6.004 0.004,0 c 0,-2.049 1.661,-3.71 3.71,-3.71 2.049,0 3.71,1.661 3.71,3.71 l 0,46.553 c 0,2.049 -1.661,3.71 -3.71,3.71"
       id="path38"
       style="fill:#000000;fill-opacity:1;fill-rule:nonzero;stroke:none" /><path
       d="m 593.614,283.7747 c -2.909,-7.624 -9.932,-13.141 -19.462,-13.141 -14.848,0 -21.569,11.739 -21.67,21.468 l 0,0.1 c 0,12.038 9.029,21.669 21.469,21.669 9.53,0 16.754,-5.516 19.764,-12.939 1.203,-2.609 1.805,-5.62 1.704,-8.629 0,-2.908 -0.602,-5.919 -1.805,-8.528 m 5.946,35.862 c -2.049,0 -3.71,-1.661 -3.71,-3.71 l -0.004,0 0,-5.888 c -4.195,5.232 -12.702,10.656 -22.697,10.656 -16.453,0 -27.99,-12.64 -27.99,-28.493 0,-14.848 10.433,-28.489 27.99,-28.489 8.914,0 18.039,4.549 22.697,11.665 l 0,-6.004 0.004,0 c 0,-2.049 1.661,-3.71 3.71,-3.71 2.049,0 3.71,1.661 3.71,3.71 l 0,46.553 c 0,2.049 -1.661,3.71 -3.71,3.71"
       id="path42"
       style="fill:#000000;fill-opacity:1;fill-rule:nonzero;stroke:none" /><path
       d="m 534.5722,333.1213 c 0,-2.209 -1.791,-3.999 -3.999,-3.999 -2.209,0 -4,1.79 -4,3.999 0,2.209 1.791,3.999 4,3.999 2.208,0 3.999,-1.79 3.999,-3.999"
       id="path46"
       style="fill:#000000;fill-opacity:1;fill-rule:nonzero;stroke:none" /><g
       transform="matrix(0.64000002,0,0,-0.64000002,155.38067,357.10926)"
       id="g3148"
       style="fill:#000000"><path
         d="m 88.389548,0.00352674 c -0.797448,0.02504 -1.528665,0.169459 -2.124431,0.361073 L 3.862906,31.1762 c -2.2857343,0.864457 -3.88821015,3.111394 -3.86260348043,5.4161 l 0,103.98914 C 3.2293623e-4,142.86632 1.5971954,145.08061 3.862906,145.93737 l 82.402211,30.81159 c 1.4682,0.55519 3.166922,0.55519 4.635122,0 l 82.402211,-30.81159 c 2.26571,-0.85676 3.86258,-3.07105 3.8626,-5.35593 l 0,-103.98914 c 0.0255,-2.304706 -1.57687,-4.551643 -3.8626,-5.4161 L 90.900239,0.36459974 c -0.849587,-0.288281 -1.713243,-0.385144 -2.510691,-0.361073 z M 88.582673,11.979129 154.24694,36.532121 129.78378,45.739494 64.055146,21.126321 88.582679,11.979129 z M 47.381573,27.384928 113.04583,51.937919 88.582679,61.145292 22.918417,36.532121 47.381573,27.384928 z m -35.02094,17.752777 70.041879,26.177822 0,91.532113 -70.041879,-26.238 0,-91.471935 z m 152.444087,0 0,91.471935 -28.84077,10.77202 0,-22.20601 c 0.0686,-3.08482 -2.94394,-5.93008 -6.24454,-5.89754 -3.25765,0.0308 -6.18351,2.85277 -6.11579,5.89754 l 0,26.83979 -28.840776,10.8322 0,-91.532113 70.041876,-26.177822 z m -35.53595,23.229056 a 6.0262642,5.6333085 0 0 0 -5.92266,5.716996 l 0,18.174029 a 6.0262642,5.6333085 0 1 0 12.03845,0 l 0,-18.174029 a 6.0262642,5.6333085 0 0 0 -6.11579,-5.716996 z"
         id="logo"
         style="text-indent:0;text-transform:none;direction:ltr;block-progression:tb;baseline-shift:baseline;color:#000000;fill:#000000;fill-opacity:1;stroke:none;marker:none;visibility:visible;display:inline;overflow:visible;enable-background:accumulate" /></g></g></svg>